<svg xmlns="http://www.w3.org/2000/svg" viewBox="0 0 1292 816.98"><defs><style>.cls-1{opacity:0.5;}.cls-2,.cls-3,.cls-4{fill:none;stroke-miterlimit:10;}.cls-2{stroke:#fff;}.cls-3{stroke:#4f00ff;}.cls-4{stroke:#b100e9;}.cls-5{fill:#001734;opacity:0.8;}</style></defs><g id="Layer_2" data-name="Layer 2"><g id="Layer_1-2" data-name="Layer 1"><g class="cls-1"><rect class="cls-2" x="2.8" y="612.92" width="214.04" height="203.5"/><line class="cls-2" x1="2.8" y1="782.51" x2="216.84" y2="782.51"/><line class="cls-2" x1="2.8" y1="748.59" x2="216.84" y2="748.59"/><line class="cls-2" x1="2.8" y1="714.67" x2="216.84" y2="714.67"/><line class="cls-2" x1="2.8" y1="680.76" x2="216.84" y2="680.76"/><line class="cls-2" x1="2.8" y1="646.84" x2="216.84" y2="646.84"/><line class="cls-2" x1="181.17" y1="612.92" x2="181.17" y2="816.43"/><line class="cls-2" x1="145.49" y1="612.92" x2="145.49" y2="816.43"/><line class="cls-2" x1="109.82" y1="612.92" x2="109.82" y2="816.43"/><line class="cls-2" x1="74.15" y1="612.92" x2="74.15" y2="816.43"/><line class="cls-2" x1="38.47" y1="612.92" x2="38.47" y2="816.43"/></g><g class="cls-1"><rect class="cls-2" x="2.88" y="1.89" width="214.04" height="203.5"/><line class="cls-2" x1="2.88" y1="171.48" x2="216.93" y2="171.48"/><line class="cls-2" x1="2.88" y1="137.56" x2="216.93" y2="137.56"/><line class="cls-2" x1="2.88" y1="103.64" x2="216.93" y2="103.64"/><line class="cls-2" x1="2.88" y1="69.73" x2="216.93" y2="69.73"/><line class="cls-2" x1="2.88" y1="35.81" x2="216.93" y2="35.81"/><line class="cls-2" x1="181.25" y1="1.89" x2="181.25" y2="205.4"/><line class="cls-2" x1="145.58" y1="1.89" x2="145.58" y2="205.4"/><line class="cls-2" x1="109.91" y1="1.89" x2="109.91" y2="205.4"/><line class="cls-2" x1="74.23" y1="1.89" x2="74.23" y2="205.4"/><line class="cls-2" x1="38.56" y1="1.89" x2="38.56" y2="205.4"/></g><g class="cls-1"><rect class="cls-2" x="38.88" y="315.89" width="214.04" height="203.5"/><line class="cls-2" x1="38.88" y1="485.48" x2="252.93" y2="485.48"/><line class="cls-2" x1="38.88" y1="451.56" x2="252.93" y2="451.56"/><line class="cls-2" x1="38.88" y1="417.64" x2="252.93" y2="417.64"/><line class="cls-2" x1="38.88" y1="383.73" x2="252.93" y2="383.73"/><line class="cls-2" x1="38.88" y1="349.81" x2="252.93" y2="349.81"/><line class="cls-2" x1="217.25" y1="315.89" x2="217.25" y2="519.4"/><line class="cls-2" x1="181.58" y1="315.89" x2="181.58" y2="519.4"/><line class="cls-2" x1="145.91" y1="315.89" x2="145.91" y2="519.4"/><line class="cls-2" x1="110.23" y1="315.89" x2="110.23" y2="519.4"/><line class="cls-2" x1="74.56" y1="315.89" x2="74.56" y2="519.4"/></g><g class="cls-1"><rect class="cls-2" x="2.88" y="205.89" width="214.04" height="203.5"/><line class="cls-2" x1="2.88" y1="375.48" x2="216.93" y2="375.48"/><line class="cls-2" x1="2.88" y1="341.56" x2="216.93" y2="341.56"/><line class="cls-2" x1="2.88" y1="307.64" x2="216.93" y2="307.64"/><line class="cls-2" x1="2.88" y1="273.73" x2="216.93" y2="273.73"/><line class="cls-2" x1="2.88" y1="239.81" x2="216.93" y2="239.81"/><line class="cls-2" x1="181.25" y1="205.89" x2="181.25" y2="409.4"/><line class="cls-2" x1="145.58" y1="205.89" x2="145.58" y2="409.4"/><line class="cls-2" x1="109.91" y1="205.89" x2="109.91" y2="409.4"/><line class="cls-2" x1="74.23" y1="205.89" x2="74.23" y2="409.4"/><line class="cls-2" x1="38.56" y1="205.89" x2="38.56" y2="409.4"/></g><g class="cls-1"><rect class="cls-2" x="2.88" y="409.89" width="214.04" height="203.5"/><line class="cls-2" x1="2.88" y1="579.48" x2="216.93" y2="579.48"/><line class="cls-2" x1="2.88" y1="545.56" x2="216.93" y2="545.56"/><line class="cls-2" x1="2.88" y1="511.64" x2="216.93" y2="511.64"/><line class="cls-2" x1="2.88" y1="477.73" x2="216.93" y2="477.73"/><line class="cls-2" x1="2.88" y1="443.81" x2="216.93" y2="443.81"/><line class="cls-2" x1="181.25" y1="409.89" x2="181.25" y2="613.4"/><line class="cls-2" x1="145.58" y1="409.89" x2="145.58" y2="613.4"/><line class="cls-2" x1="109.91" y1="409.89" x2="109.91" y2="613.4"/><line class="cls-2" x1="74.23" y1="409.89" x2="74.23" y2="613.4"/><line class="cls-2" x1="38.56" y1="409.89" x2="38.56" y2="613.4"/></g><g class="cls-1"><rect class="cls-2" x="10.63" y="194.42" width="214.04" height="203.5"/><line class="cls-2" x1="10.63" y1="364.01" x2="224.67" y2="364.01"/><line class="cls-2" x1="10.63" y1="330.09" x2="224.67" y2="330.09"/><line class="cls-2" x1="10.63" y1="296.17" x2="224.67" y2="296.17"/><line class="cls-2" x1="10.63" y1="262.26" x2="224.67" y2="262.26"/><line class="cls-2" x1="10.63" y1="228.34" x2="224.67" y2="228.34"/><line class="cls-2" x1="189" y1="194.42" x2="189" y2="397.93"/><line class="cls-2" x1="153.33" y1="194.42" x2="153.33" y2="397.93"/><line class="cls-2" x1="117.65" y1="194.42" x2="117.65" y2="397.93"/><line class="cls-2" x1="81.98" y1="194.42" x2="81.98" y2="397.93"/><line class="cls-2" x1="46.3" y1="194.42" x2="46.3" y2="397.93"/></g><g class="cls-1"><rect class="cls-2" x="216.95" y="612.49" width="214.04" height="203.5"/><line class="cls-2" x1="216.95" y1="782.08" x2="431" y2="782.08"/><line class="cls-2" x1="216.95" y1="748.16" x2="431" y2="748.16"/><line class="cls-2" x1="216.95" y1="714.24" x2="431" y2="714.24"/><line class="cls-2" x1="216.95" y1="680.32" x2="431" y2="680.32"/><line class="cls-2" x1="216.95" y1="646.41" x2="431" y2="646.41"/><line class="cls-2" x1="395.32" y1="612.49" x2="395.32" y2="815.99"/><line class="cls-2" x1="359.65" y1="612.49" x2="359.65" y2="815.99"/><line class="cls-2" x1="323.97" y1="612.49" x2="323.97" y2="815.99"/><line class="cls-2" x1="288.3" y1="612.49" x2="288.3" y2="815.99"/><line class="cls-2" x1="252.63" y1="612.49" x2="252.63" y2="815.99"/></g><g class="cls-1"><rect class="cls-2" x="216.95" y="409.49" width="214.04" height="203.5"/><line class="cls-2" x1="216.95" y1="579.08" x2="431" y2="579.08"/><line class="cls-2" x1="216.95" y1="545.16" x2="431" y2="545.16"/><line class="cls-2" x1="216.95" y1="511.24" x2="431" y2="511.24"/><line class="cls-2" x1="216.95" y1="477.32" x2="431" y2="477.32"/><line class="cls-2" x1="216.95" y1="443.41" x2="431" y2="443.41"/><line class="cls-2" x1="395.32" y1="409.49" x2="395.32" y2="612.99"/><line class="cls-2" x1="359.65" y1="409.49" x2="359.65" y2="612.99"/><line class="cls-2" x1="323.97" y1="409.49" x2="323.97" y2="612.99"/><line class="cls-2" x1="288.3" y1="409.49" x2="288.3" y2="612.99"/><line class="cls-2" x1="252.63" y1="409.49" x2="252.63" y2="612.99"/></g><g class="cls-1"><rect class="cls-2" x="216.76" y="205.52" width="214.04" height="203.5"/><line class="cls-2" x1="216.76" y1="375.11" x2="430.8" y2="375.11"/><line class="cls-2" x1="216.76" y1="341.19" x2="430.8" y2="341.19"/><line class="cls-2" x1="216.76" y1="307.28" x2="430.8" y2="307.28"/><line class="cls-2" x1="216.76" y1="273.36" x2="430.8" y2="273.36"/><line class="cls-2" x1="216.76" y1="239.44" x2="430.8" y2="239.44"/><line class="cls-2" x1="395.13" y1="205.52" x2="395.13" y2="409.03"/><line class="cls-2" x1="359.45" y1="205.52" x2="359.45" y2="409.03"/><line class="cls-2" x1="323.78" y1="205.52" x2="323.78" y2="409.03"/><line class="cls-2" x1="288.1" y1="205.52" x2="288.1" y2="409.03"/><line class="cls-2" x1="252.43" y1="205.52" x2="252.43" y2="409.03"/></g><g class="cls-1"><rect class="cls-3" x="224.76" y="214.52" width="214.04" height="203.5"/><line class="cls-3" x1="224.76" y1="384.11" x2="438.8" y2="384.11"/><line class="cls-3" x1="224.76" y1="350.19" x2="438.8" y2="350.19"/><line class="cls-3" x1="224.76" y1="316.28" x2="438.8" y2="316.28"/><line class="cls-3" x1="224.76" y1="282.36" x2="438.8" y2="282.36"/><line class="cls-3" x1="224.76" y1="248.44" x2="438.8" y2="248.44"/><line class="cls-3" x1="403.13" y1="214.52" x2="403.13" y2="418.03"/><line class="cls-3" x1="367.45" y1="214.52" x2="367.45" y2="418.03"/><line class="cls-3" x1="331.78" y1="214.52" x2="331.78" y2="418.03"/><line class="cls-3" x1="296.1" y1="214.52" x2="296.1" y2="418.03"/><line class="cls-3" x1="260.43" y1="214.52" x2="260.43" y2="418.03"/></g><g class="cls-1"><rect class="cls-2" x="216.76" y="1.52" width="214.04" height="203.5"/><line class="cls-2" x1="216.76" y1="171.11" x2="430.8" y2="171.11"/><line class="cls-2" x1="216.76" y1="137.19" x2="430.8" y2="137.19"/><line class="cls-2" x1="216.76" y1="103.28" x2="430.8" y2="103.28"/><line class="cls-2" x1="216.76" y1="69.36" x2="430.8" y2="69.36"/><line class="cls-2" x1="216.76" y1="35.44" x2="430.8" y2="35.44"/><line class="cls-2" x1="395.13" y1="1.52" x2="395.13" y2="205.03"/><line class="cls-2" x1="359.45" y1="1.52" x2="359.45" y2="205.03"/><line class="cls-2" x1="323.78" y1="1.52" x2="323.78" y2="205.03"/><line class="cls-2" x1="288.1" y1="1.52" x2="288.1" y2="205.03"/><line class="cls-2" x1="252.43" y1="1.52" x2="252.43" y2="205.03"/></g><g class="cls-1"><rect class="cls-2" x="149.62" y="514.88" width="214.04" height="203.5"/><line class="cls-2" x1="149.62" y1="684.46" x2="363.66" y2="684.46"/><line class="cls-2" x1="149.62" y1="650.55" x2="363.66" y2="650.55"/><line class="cls-2" x1="149.62" y1="616.63" x2="363.66" y2="616.63"/><line class="cls-2" x1="149.62" y1="582.71" x2="363.66" y2="582.71"/><line class="cls-2" x1="149.62" y1="548.79" x2="363.66" y2="548.79"/><line class="cls-2" x1="327.99" y1="514.88" x2="327.99" y2="718.38"/><line class="cls-2" x1="292.31" y1="514.88" x2="292.31" y2="718.38"/><line class="cls-2" x1="256.64" y1="514.88" x2="256.64" y2="718.38"/><line class="cls-2" x1="220.97" y1="514.88" x2="220.97" y2="718.38"/><line class="cls-2" x1="185.29" y1="514.88" x2="185.29" y2="718.38"/></g><g class="cls-1"><rect class="cls-2" x="145.84" y="579.92" width="35" height="33"/><line class="cls-2" x1="145.84" y1="607.42" x2="180.84" y2="607.42"/><line class="cls-2" x1="145.84" y1="601.92" x2="180.84" y2="601.92"/><line class="cls-2" x1="145.84" y1="596.42" x2="180.84" y2="596.42"/><line class="cls-2" x1="145.84" y1="590.92" x2="180.84" y2="590.92"/><line class="cls-2" x1="145.84" y1="585.42" x2="180.84" y2="585.42"/><line class="cls-2" x1="175.01" y1="579.92" x2="175.01" y2="612.92"/><line class="cls-2" x1="169.17" y1="579.92" x2="169.17" y2="612.92"/><line class="cls-2" x1="163.34" y1="579.92" x2="163.34" y2="612.92"/><line class="cls-2" x1="157.51" y1="579.92" x2="157.51" y2="612.92"/><line class="cls-2" x1="151.67" y1="579.92" x2="151.67" y2="612.92"/></g><g class="cls-1"><rect class="cls-2" x="431.31" y="612.98" width="214.04" height="203.5"/><line class="cls-2" x1="431.31" y1="782.57" x2="645.35" y2="782.57"/><line class="cls-2" x1="431.31" y1="748.65" x2="645.35" y2="748.65"/><line class="cls-2" x1="431.31" y1="714.73" x2="645.35" y2="714.73"/><line class="cls-2" x1="431.31" y1="680.82" x2="645.35" y2="680.82"/><line class="cls-2" x1="431.31" y1="646.9" x2="645.35" y2="646.9"/><line class="cls-2" x1="609.68" y1="612.98" x2="609.68" y2="816.48"/><line class="cls-2" x1="574" y1="612.98" x2="574" y2="816.48"/><line class="cls-2" x1="538.33" y1="612.98" x2="538.33" y2="816.48"/><line class="cls-2" x1="502.66" y1="612.98" x2="502.66" y2="816.48"/><line class="cls-2" x1="466.98" y1="612.98" x2="466.98" y2="816.48"/></g><g class="cls-1"><rect class="cls-2" x="431.31" y="409.98" width="214.04" height="203.5"/><line class="cls-2" x1="431.31" y1="579.57" x2="645.35" y2="579.57"/><line class="cls-2" x1="431.31" y1="545.65" x2="645.35" y2="545.65"/><line class="cls-2" x1="431.31" y1="511.73" x2="645.35" y2="511.73"/><line class="cls-2" x1="431.31" y1="477.82" x2="645.35" y2="477.82"/><line class="cls-2" x1="431.31" y1="443.9" x2="645.35" y2="443.9"/><line class="cls-2" x1="609.68" y1="409.98" x2="609.68" y2="613.48"/><line class="cls-2" x1="574" y1="409.98" x2="574" y2="613.48"/><line class="cls-2" x1="538.33" y1="409.98" x2="538.33" y2="613.48"/><line class="cls-2" x1="502.66" y1="409.98" x2="502.66" y2="613.48"/><line class="cls-2" x1="466.98" y1="409.98" x2="466.98" y2="613.48"/></g><g class="cls-1"><rect class="cls-2" x="431.31" y="205.98" width="214.04" height="203.5"/><line class="cls-2" x1="431.31" y1="375.57" x2="645.35" y2="375.57"/><line class="cls-2" x1="431.31" y1="341.65" x2="645.35" y2="341.65"/><line class="cls-2" x1="431.31" y1="307.73" x2="645.35" y2="307.73"/><line class="cls-2" x1="431.31" y1="273.82" x2="645.35" y2="273.82"/><line class="cls-2" x1="431.31" y1="239.9" x2="645.35" y2="239.9"/><line class="cls-2" x1="609.68" y1="205.98" x2="609.68" y2="409.48"/><line class="cls-2" x1="574" y1="205.98" x2="574" y2="409.48"/><line class="cls-2" x1="538.33" y1="205.98" x2="538.33" y2="409.48"/><line class="cls-2" x1="502.66" y1="205.98" x2="502.66" y2="409.48"/><line class="cls-2" x1="466.98" y1="205.98" x2="466.98" y2="409.48"/></g><g class="cls-1"><rect class="cls-2" x="224.31" y="82.98" width="214.04" height="203.5"/><line class="cls-2" x1="224.31" y1="252.57" x2="438.35" y2="252.57"/><line class="cls-2" x1="224.31" y1="218.65" x2="438.35" y2="218.65"/><line class="cls-2" x1="224.31" y1="184.73" x2="438.35" y2="184.73"/><line class="cls-2" x1="224.31" y1="150.82" x2="438.35" y2="150.82"/><line class="cls-2" x1="224.31" y1="116.9" x2="438.35" y2="116.9"/><line class="cls-2" x1="402.68" y1="82.98" x2="402.68" y2="286.48"/><line class="cls-2" x1="367" y1="82.98" x2="367" y2="286.48"/><line class="cls-2" x1="331.33" y1="82.98" x2="331.33" y2="286.48"/><line class="cls-2" x1="295.66" y1="82.98" x2="295.66" y2="286.48"/><line class="cls-2" x1="259.98" y1="82.98" x2="259.98" y2="286.48"/></g><g class="cls-1"><rect class="cls-2" x="431.31" y="1.98" width="214.04" height="203.5"/><line class="cls-2" x1="431.31" y1="171.57" x2="645.35" y2="171.57"/><line class="cls-2" x1="431.31" y1="137.65" x2="645.35" y2="137.65"/><line class="cls-2" x1="431.31" y1="103.73" x2="645.35" y2="103.73"/><line class="cls-2" x1="431.31" y1="69.82" x2="645.35" y2="69.82"/><line class="cls-2" x1="431.31" y1="35.9" x2="645.35" y2="35.9"/><line class="cls-2" x1="609.68" y1="1.98" x2="609.68" y2="205.48"/><line class="cls-2" x1="574" y1="1.98" x2="574" y2="205.48"/><line class="cls-2" x1="538.33" y1="1.98" x2="538.33" y2="205.48"/><line class="cls-2" x1="502.66" y1="1.98" x2="502.66" y2="205.48"/><line class="cls-2" x1="466.98" y1="1.98" x2="466.98" y2="205.48"/></g><g class="cls-1"><rect class="cls-2" x="537.96" y="137.36" width="35" height="33"/><line class="cls-2" x1="537.96" y1="164.86" x2="572.96" y2="164.86"/><line class="cls-2" x1="537.96" y1="159.36" x2="572.96" y2="159.36"/><line class="cls-2" x1="537.96" y1="153.86" x2="572.96" y2="153.86"/><line class="cls-2" x1="537.96" y1="148.36" x2="572.96" y2="148.36"/><line class="cls-2" x1="537.96" y1="142.86" x2="572.96" y2="142.86"/><line class="cls-2" x1="567.12" y1="137.36" x2="567.12" y2="170.36"/><line class="cls-2" x1="561.29" y1="137.36" x2="561.29" y2="170.36"/><line class="cls-2" x1="555.46" y1="137.36" x2="555.46" y2="170.36"/><line class="cls-2" x1="549.62" y1="137.36" x2="549.62" y2="170.36"/><line class="cls-2" x1="543.79" y1="137.36" x2="543.79" y2="170.36"/></g><g class="cls-1"><rect class="cls-2" x="574.96" y="172.36" width="35" height="33"/><line class="cls-2" x1="574.96" y1="199.86" x2="609.96" y2="199.86"/><line class="cls-2" x1="574.96" y1="194.36" x2="609.96" y2="194.36"/><line class="cls-2" x1="574.96" y1="188.86" x2="609.96" y2="188.86"/><line class="cls-2" x1="574.96" y1="183.36" x2="609.96" y2="183.36"/><line class="cls-2" x1="574.96" y1="177.86" x2="609.96" y2="177.86"/><line class="cls-2" x1="604.12" y1="172.36" x2="604.12" y2="205.36"/><line class="cls-2" x1="598.29" y1="172.36" x2="598.29" y2="205.36"/><line class="cls-2" x1="592.46" y1="172.36" x2="592.46" y2="205.36"/><line class="cls-2" x1="586.62" y1="172.36" x2="586.62" y2="205.36"/><line class="cls-2" x1="580.79" y1="172.36" x2="580.79" y2="205.36"/></g><g class="cls-1"><rect class="cls-2" x="645.88" y="205.16" width="214.04" height="203.5"/><line class="cls-2" x1="645.88" y1="374.75" x2="859.92" y2="374.75"/><line class="cls-2" x1="645.88" y1="340.83" x2="859.92" y2="340.83"/><line class="cls-2" x1="645.88" y1="306.92" x2="859.92" y2="306.92"/><line class="cls-2" x1="645.88" y1="273" x2="859.92" y2="273"/><line class="cls-2" x1="645.88" y1="239.08" x2="859.92" y2="239.08"/><line class="cls-2" x1="824.25" y1="205.16" x2="824.25" y2="408.67"/><line class="cls-2" x1="788.57" y1="205.16" x2="788.57" y2="408.67"/><line class="cls-2" x1="752.9" y1="205.16" x2="752.9" y2="408.67"/><line class="cls-2" x1="717.23" y1="205.16" x2="717.23" y2="408.67"/><line class="cls-2" x1="681.55" y1="205.16" x2="681.55" y2="408.67"/></g><g class="cls-1"><rect class="cls-2" x="645.88" y="409.16" width="214.04" height="203.5"/><line class="cls-2" x1="645.88" y1="578.75" x2="859.92" y2="578.75"/><line class="cls-2" x1="645.88" y1="544.83" x2="859.92" y2="544.83"/><line class="cls-2" x1="645.88" y1="510.92" x2="859.92" y2="510.92"/><line class="cls-2" x1="645.88" y1="477" x2="859.92" y2="477"/><line class="cls-2" x1="645.88" y1="443.08" x2="859.92" y2="443.08"/><line class="cls-2" x1="824.25" y1="409.16" x2="824.25" y2="612.67"/><line class="cls-2" x1="788.57" y1="409.16" x2="788.57" y2="612.67"/><line class="cls-2" x1="752.9" y1="409.16" x2="752.9" y2="612.67"/><line class="cls-2" x1="717.23" y1="409.16" x2="717.23" y2="612.67"/><line class="cls-2" x1="681.55" y1="409.16" x2="681.55" y2="612.67"/></g><g class="cls-1"><polygon class="cls-2" points="645.41 1.27 859.34 2.27 859.34 205.77 645.41 204.77 645.41 1.27"/><line class="cls-2" x1="645.41" y1="170.85" x2="859.45" y2="170.85"/><line class="cls-2" x1="645.41" y1="136.94" x2="859.45" y2="136.94"/><line class="cls-2" x1="645.41" y1="103.02" x2="859.45" y2="103.02"/><line class="cls-2" x1="645.41" y1="69.1" x2="859.45" y2="69.1"/><line class="cls-2" x1="645.41" y1="35.18" x2="859.45" y2="35.18"/><line class="cls-2" x1="823.78" y1="1.27" x2="823.78" y2="204.77"/><line class="cls-2" x1="788.11" y1="1.27" x2="788.11" y2="204.77"/><line class="cls-2" x1="752.43" y1="1.27" x2="752.43" y2="204.77"/><line class="cls-2" x1="716.76" y1="1.27" x2="716.76" y2="204.77"/><line class="cls-2" x1="681.09" y1="1.27" x2="681.09" y2="204.77"/></g><g class="cls-1"><rect class="cls-2" x="646.29" y="612.5" width="214.04" height="203.5"/><line class="cls-2" x1="646.29" y1="782.09" x2="860.33" y2="782.09"/><line class="cls-2" x1="646.29" y1="748.17" x2="860.33" y2="748.17"/><line class="cls-2" x1="646.29" y1="714.26" x2="860.33" y2="714.26"/><line class="cls-2" x1="646.29" y1="680.34" x2="860.33" y2="680.34"/><line class="cls-2" x1="646.29" y1="646.42" x2="860.33" y2="646.42"/><line class="cls-2" x1="824.66" y1="612.5" x2="824.66" y2="816.01"/><line class="cls-2" x1="788.99" y1="612.5" x2="788.99" y2="816.01"/><line class="cls-2" x1="753.31" y1="612.5" x2="753.31" y2="816.01"/><line class="cls-2" x1="717.64" y1="612.5" x2="717.64" y2="816.01"/><line class="cls-2" x1="681.96" y1="612.5" x2="681.96" y2="816.01"/></g><g class="cls-1"><rect class="cls-2" x="565.88" y="321.92" width="160.96" height="149.29"/><line class="cls-2" x1="565.88" y1="446.33" x2="726.84" y2="446.33"/><line class="cls-2" x1="565.88" y1="421.45" x2="726.84" y2="421.45"/><line class="cls-2" x1="565.88" y1="396.57" x2="726.84" y2="396.57"/><line class="cls-2" x1="565.88" y1="371.69" x2="726.84" y2="371.69"/><line class="cls-2" x1="565.88" y1="346.8" x2="726.84" y2="346.8"/><line class="cls-2" x1="700.01" y1="321.92" x2="700.01" y2="471.21"/><line class="cls-2" x1="673.19" y1="321.92" x2="673.19" y2="471.21"/><line class="cls-2" x1="646.36" y1="321.92" x2="646.36" y2="471.21"/><line class="cls-2" x1="619.53" y1="321.92" x2="619.53" y2="471.21"/><line class="cls-2" x1="592.7" y1="321.92" x2="592.7" y2="471.21"/></g><g class="cls-1"><rect class="cls-2" x="584.42" y="371.81" width="163.42" height="124.11"/><line class="cls-2" x1="584.42" y1="475.24" x2="747.84" y2="475.24"/><line class="cls-2" x1="584.42" y1="454.55" x2="747.84" y2="454.55"/><line class="cls-2" x1="584.42" y1="433.87" x2="747.84" y2="433.87"/><line class="cls-2" x1="584.42" y1="413.18" x2="747.84" y2="413.18"/><line class="cls-2" x1="584.42" y1="392.5" x2="747.84" y2="392.5"/><line class="cls-2" x1="720.6" y1="371.81" x2="720.6" y2="495.92"/><line class="cls-2" x1="693.37" y1="371.81" x2="693.37" y2="495.92"/><line class="cls-2" x1="666.13" y1="371.81" x2="666.13" y2="495.92"/><line class="cls-2" x1="638.89" y1="371.81" x2="638.89" y2="495.92"/><line class="cls-2" x1="611.65" y1="371.81" x2="611.65" y2="495.92"/></g><g class="cls-1"><rect class="cls-2" x="682.32" y="578.75" width="35" height="33"/><line class="cls-2" x1="682.32" y1="606.25" x2="717.32" y2="606.25"/><line class="cls-2" x1="682.32" y1="600.75" x2="717.32" y2="600.75"/><line class="cls-2" x1="682.32" y1="595.25" x2="717.32" y2="595.25"/><line class="cls-2" x1="682.32" y1="589.75" x2="717.32" y2="589.75"/><line class="cls-2" x1="682.32" y1="584.25" x2="717.32" y2="584.25"/><line class="cls-2" x1="711.48" y1="578.75" x2="711.48" y2="611.75"/><line class="cls-2" x1="705.65" y1="578.75" x2="705.65" y2="611.75"/><line class="cls-2" x1="699.82" y1="578.75" x2="699.82" y2="611.75"/><line class="cls-2" x1="693.98" y1="578.75" x2="693.98" y2="611.75"/><line class="cls-2" x1="688.15" y1="578.75" x2="688.15" y2="611.75"/></g><g class="cls-1"><rect class="cls-2" x="395.32" y="511.75" width="35" height="33"/><line class="cls-2" x1="395.32" y1="539.25" x2="430.32" y2="539.25"/><line class="cls-2" x1="395.32" y1="533.75" x2="430.32" y2="533.75"/><line class="cls-2" x1="395.32" y1="528.25" x2="430.32" y2="528.25"/><line class="cls-2" x1="395.32" y1="522.75" x2="430.32" y2="522.75"/><line class="cls-2" x1="395.32" y1="517.25" x2="430.32" y2="517.25"/><line class="cls-2" x1="424.48" y1="511.75" x2="424.48" y2="544.75"/><line class="cls-2" x1="418.65" y1="511.75" x2="418.65" y2="544.75"/><line class="cls-2" x1="412.82" y1="511.75" x2="412.82" y2="544.75"/><line class="cls-2" x1="406.98" y1="511.75" x2="406.98" y2="544.75"/><line class="cls-2" x1="401.15" y1="511.75" x2="401.15" y2="544.75"/></g><g class="cls-1"><rect class="cls-2" x="860.1" y="612" width="214.04" height="203.5"/><line class="cls-2" x1="860.1" y1="781.59" x2="1074.14" y2="781.59"/><line class="cls-2" x1="860.1" y1="747.67" x2="1074.14" y2="747.67"/><line class="cls-2" x1="860.1" y1="713.75" x2="1074.14" y2="713.75"/><line class="cls-2" x1="860.1" y1="679.84" x2="1074.14" y2="679.84"/><line class="cls-2" x1="860.1" y1="645.92" x2="1074.14" y2="645.92"/><line class="cls-2" x1="1038.47" y1="612" x2="1038.47" y2="815.51"/><line class="cls-2" x1="1002.8" y1="612" x2="1002.8" y2="815.51"/><line class="cls-2" x1="967.12" y1="612" x2="967.12" y2="815.51"/><line class="cls-2" x1="931.45" y1="612" x2="931.45" y2="815.51"/><line class="cls-2" x1="895.77" y1="612" x2="895.77" y2="815.51"/></g><g class="cls-1"><rect class="cls-2" x="859.1" y="1" width="214.04" height="203.5"/><line class="cls-2" x1="859.1" y1="170.59" x2="1073.14" y2="170.59"/><line class="cls-2" x1="859.1" y1="136.67" x2="1073.14" y2="136.67"/><line class="cls-2" x1="859.1" y1="102.75" x2="1073.14" y2="102.75"/><line class="cls-2" x1="859.1" y1="68.84" x2="1073.14" y2="68.84"/><line class="cls-2" x1="859.1" y1="34.92" x2="1073.14" y2="34.92"/><line class="cls-2" x1="1037.47" y1="1" x2="1037.47" y2="204.51"/><line class="cls-2" x1="1001.8" y1="1" x2="1001.8" y2="204.51"/><line class="cls-2" x1="966.12" y1="1" x2="966.12" y2="204.51"/><line class="cls-2" x1="930.45" y1="1" x2="930.45" y2="204.51"/><line class="cls-2" x1="894.77" y1="1" x2="894.77" y2="204.51"/></g><g class="cls-1"><rect class="cls-2" x="859.1" y="205" width="214.04" height="203.5"/><line class="cls-2" x1="859.1" y1="374.59" x2="1073.14" y2="374.59"/><line class="cls-2" x1="859.1" y1="340.67" x2="1073.14" y2="340.67"/><line class="cls-2" x1="859.1" y1="306.75" x2="1073.14" y2="306.75"/><line class="cls-2" x1="859.1" y1="272.84" x2="1073.14" y2="272.84"/><line class="cls-2" x1="859.1" y1="238.92" x2="1073.14" y2="238.92"/><line class="cls-2" x1="1037.47" y1="205" x2="1037.47" y2="408.51"/><line class="cls-2" x1="1001.8" y1="205" x2="1001.8" y2="408.51"/><line class="cls-2" x1="966.12" y1="205" x2="966.12" y2="408.51"/><line class="cls-2" x1="930.45" y1="205" x2="930.45" y2="408.51"/><line class="cls-2" x1="894.77" y1="205" x2="894.77" y2="408.51"/></g><g class="cls-1"><rect class="cls-2" x="860.1" y="409" width="214.04" height="203.5"/><line class="cls-2" x1="860.1" y1="578.59" x2="1074.14" y2="578.59"/><line class="cls-2" x1="860.1" y1="544.67" x2="1074.14" y2="544.67"/><line class="cls-2" x1="860.1" y1="510.75" x2="1074.14" y2="510.75"/><line class="cls-2" x1="860.1" y1="476.84" x2="1074.14" y2="476.84"/><line class="cls-2" x1="860.1" y1="442.92" x2="1074.14" y2="442.92"/><line class="cls-2" x1="1038.47" y1="409" x2="1038.47" y2="612.51"/><line class="cls-2" x1="1002.8" y1="409" x2="1002.8" y2="612.51"/><line class="cls-2" x1="967.12" y1="409" x2="967.12" y2="612.51"/><line class="cls-2" x1="931.45" y1="409" x2="931.45" y2="612.51"/><line class="cls-2" x1="895.77" y1="409" x2="895.77" y2="612.51"/></g><g class="cls-1"><rect class="cls-2" x="1072.39" y="0.5" width="214.04" height="203.5"/><line class="cls-2" x1="1072.39" y1="170.09" x2="1286.44" y2="170.09"/><line class="cls-2" x1="1072.39" y1="136.17" x2="1286.44" y2="136.17"/><line class="cls-2" x1="1072.39" y1="102.25" x2="1286.44" y2="102.25"/><line class="cls-2" x1="1072.39" y1="68.33" x2="1286.44" y2="68.33"/><line class="cls-2" x1="1072.39" y1="34.42" x2="1286.44" y2="34.42"/><line class="cls-2" x1="1250.76" y1="0.5" x2="1250.76" y2="204"/><line class="cls-2" x1="1215.09" y1="0.5" x2="1215.09" y2="204"/><line class="cls-2" x1="1179.42" y1="0.5" x2="1179.42" y2="204"/><line class="cls-2" x1="1143.74" y1="0.5" x2="1143.74" y2="204"/><line class="cls-2" x1="1108.07" y1="0.5" x2="1108.07" y2="204"/></g><g class="cls-1"><rect class="cls-2" x="783.38" y="116.99" width="214.04" height="203.5"/><line class="cls-2" x1="783.38" y1="286.57" x2="997.43" y2="286.57"/><line class="cls-2" x1="783.38" y1="252.66" x2="997.43" y2="252.66"/><line class="cls-2" x1="783.38" y1="218.74" x2="997.43" y2="218.74"/><line class="cls-2" x1="783.38" y1="184.82" x2="997.43" y2="184.82"/><line class="cls-2" x1="783.38" y1="150.9" x2="997.43" y2="150.9"/><line class="cls-2" x1="961.75" y1="116.99" x2="961.75" y2="320.49"/><line class="cls-2" x1="926.08" y1="116.99" x2="926.08" y2="320.49"/><line class="cls-2" x1="890.4" y1="116.99" x2="890.4" y2="320.49"/><line class="cls-2" x1="854.73" y1="116.99" x2="854.73" y2="320.49"/><line class="cls-2" x1="819.06" y1="116.99" x2="819.06" y2="320.49"/></g><g class="cls-1"><rect class="cls-4" x="748.21" y="63.14" width="214.04" height="203.5"/><line class="cls-4" x1="748.21" y1="232.73" x2="962.25" y2="232.73"/><line class="cls-4" x1="748.21" y1="198.81" x2="962.25" y2="198.81"/><line class="cls-4" x1="748.21" y1="164.89" x2="962.25" y2="164.89"/><line class="cls-4" x1="748.21" y1="130.97" x2="962.25" y2="130.97"/><line class="cls-4" x1="748.21" y1="97.06" x2="962.25" y2="97.06"/><line class="cls-4" x1="926.58" y1="63.14" x2="926.58" y2="266.64"/><line class="cls-4" x1="890.9" y1="63.14" x2="890.9" y2="266.64"/><line class="cls-4" x1="855.23" y1="63.14" x2="855.23" y2="266.64"/><line class="cls-4" x1="819.55" y1="63.14" x2="819.55" y2="266.64"/><line class="cls-4" x1="783.88" y1="63.14" x2="783.88" y2="266.64"/></g><g class="cls-1"><rect class="cls-2" x="760.21" y="76.14" width="214.04" height="203.5"/><line class="cls-2" x1="760.21" y1="245.73" x2="974.25" y2="245.73"/><line class="cls-2" x1="760.21" y1="211.81" x2="974.25" y2="211.81"/><line class="cls-2" x1="760.21" y1="177.89" x2="974.25" y2="177.89"/><line class="cls-2" x1="760.21" y1="143.97" x2="974.25" y2="143.97"/><line class="cls-2" x1="760.21" y1="110.06" x2="974.25" y2="110.06"/><line class="cls-2" x1="938.58" y1="76.14" x2="938.58" y2="279.64"/><line class="cls-2" x1="902.9" y1="76.14" x2="902.9" y2="279.64"/><line class="cls-2" x1="867.23" y1="76.14" x2="867.23" y2="279.64"/><line class="cls-2" x1="831.55" y1="76.14" x2="831.55" y2="279.64"/><line class="cls-2" x1="795.88" y1="76.14" x2="795.88" y2="279.64"/></g><g class="cls-1"><rect class="cls-2" x="1072.62" y="205.42" width="214.04" height="203.5"/><line class="cls-2" x1="1072.62" y1="375.01" x2="1286.66" y2="375.01"/><line class="cls-2" x1="1072.62" y1="341.09" x2="1286.66" y2="341.09"/><line class="cls-2" x1="1072.62" y1="307.17" x2="1286.66" y2="307.17"/><line class="cls-2" x1="1072.62" y1="273.26" x2="1286.66" y2="273.26"/><line class="cls-2" x1="1072.62" y1="239.34" x2="1286.66" y2="239.34"/><line class="cls-2" x1="1250.99" y1="205.42" x2="1250.99" y2="408.93"/><line class="cls-2" x1="1215.31" y1="205.42" x2="1215.31" y2="408.93"/><line class="cls-2" x1="1179.64" y1="205.42" x2="1179.64" y2="408.93"/><line class="cls-2" x1="1143.96" y1="205.42" x2="1143.96" y2="408.93"/><line class="cls-2" x1="1108.29" y1="205.42" x2="1108.29" y2="408.93"/></g><g class="cls-1"><rect class="cls-2" x="1073.94" y="407.66" width="214.04" height="203.5"/><line class="cls-2" x1="1073.94" y1="577.25" x2="1287.98" y2="577.25"/><line class="cls-2" x1="1073.94" y1="543.33" x2="1287.98" y2="543.33"/><line class="cls-2" x1="1073.94" y1="509.42" x2="1287.98" y2="509.42"/><line class="cls-2" x1="1073.94" y1="475.5" x2="1287.98" y2="475.5"/><line class="cls-2" x1="1073.94" y1="441.58" x2="1287.98" y2="441.58"/><line class="cls-2" x1="1252.31" y1="407.66" x2="1252.31" y2="611.17"/><line class="cls-2" x1="1216.63" y1="407.66" x2="1216.63" y2="611.17"/><line class="cls-2" x1="1180.96" y1="407.66" x2="1180.96" y2="611.17"/><line class="cls-2" x1="1145.28" y1="407.66" x2="1145.28" y2="611.17"/><line class="cls-2" x1="1109.61" y1="407.66" x2="1109.61" y2="611.17"/></g><g class="cls-1"><rect class="cls-2" x="1073.94" y="611.66" width="214.04" height="203.5"/><line class="cls-2" x1="1073.94" y1="781.25" x2="1287.98" y2="781.25"/><line class="cls-2" x1="1073.94" y1="747.33" x2="1287.98" y2="747.33"/><line class="cls-2" x1="1073.94" y1="713.42" x2="1287.98" y2="713.42"/><line class="cls-2" x1="1073.94" y1="679.5" x2="1287.98" y2="679.5"/><line class="cls-2" x1="1073.94" y1="645.58" x2="1287.98" y2="645.58"/><line class="cls-2" x1="1252.31" y1="611.66" x2="1252.31" y2="815.17"/><line class="cls-2" x1="1216.63" y1="611.66" x2="1216.63" y2="815.17"/><line class="cls-2" x1="1180.96" y1="611.66" x2="1180.96" y2="815.17"/><line class="cls-2" x1="1145.28" y1="611.66" x2="1145.28" y2="815.17"/><line class="cls-2" x1="1109.61" y1="611.66" x2="1109.61" y2="815.17"/></g><g class="cls-1"><rect class="cls-2" x="907.7" y="558.5" width="214.04" height="203.5"/><line class="cls-2" x1="907.7" y1="728.08" x2="1121.74" y2="728.08"/><line class="cls-2" x1="907.7" y1="694.16" x2="1121.74" y2="694.16"/><line class="cls-2" x1="907.7" y1="660.25" x2="1121.74" y2="660.25"/><line class="cls-2" x1="907.7" y1="626.33" x2="1121.74" y2="626.33"/><line class="cls-2" x1="907.7" y1="592.41" x2="1121.74" y2="592.41"/><line class="cls-2" x1="1086.07" y1="558.5" x2="1086.07" y2="762"/><line class="cls-2" x1="1050.39" y1="558.5" x2="1050.39" y2="762"/><line class="cls-2" x1="1014.72" y1="558.5" x2="1014.72" y2="762"/><line class="cls-2" x1="979.05" y1="558.5" x2="979.05" y2="762"/><line class="cls-2" x1="943.37" y1="558.5" x2="943.37" y2="762"/></g><g class="cls-1"><rect class="cls-2" x="523.84" y="258.92" width="74" height="88"/><line class="cls-2" x1="523.84" y1="332.26" x2="597.84" y2="332.26"/><line class="cls-2" x1="523.84" y1="317.59" x2="597.84" y2="317.59"/><line class="cls-2" x1="523.84" y1="302.92" x2="597.84" y2="302.92"/><line class="cls-2" x1="523.84" y1="288.26" x2="597.84" y2="288.26"/><line class="cls-2" x1="523.84" y1="273.59" x2="597.84" y2="273.59"/><line class="cls-2" x1="585.51" y1="258.92" x2="585.51" y2="346.92"/><line class="cls-2" x1="573.17" y1="258.92" x2="573.17" y2="346.92"/><line class="cls-2" x1="560.84" y1="258.92" x2="560.84" y2="346.92"/><line class="cls-2" x1="548.51" y1="258.92" x2="548.51" y2="346.92"/><line class="cls-2" x1="536.17" y1="258.92" x2="536.17" y2="346.92"/></g><rect class="cls-5" y="0.55" width="1292" height="815"/><text/><text/><text/><text/></g></g></svg>