<svg xmlns="http://www.w3.org/2000/svg" viewBox="0 0 384 384"><defs><style>.cls-1{fill:#001734;}.cls-2,.cls-3,.cls-7{fill:none;}.cls-2{stroke:blue;}.cls-2,.cls-3,.cls-5,.cls-6,.cls-7{stroke-miterlimit:10;}.cls-2,.cls-5,.cls-6{stroke-width:3px;}.cls-3{stroke:#f0f;stroke-width:5px;}.cls-4{font-size:12px;font-family:AndaleMono, Andale Mono;}.cls-4,.cls-6{fill:#fff;}.cls-5{fill:#f0f;stroke:#b91c8d;}.cls-6{stroke:#ccc;}.cls-7{stroke:#fff;stroke-width:4px;}</style></defs><g id="Layer_2" data-name="Layer 2"><g id="Layer_1-2" data-name="Layer 1"><circle class="cls-1" cx="192" cy="192" r="192"/><path class="cls-2" d="M351.76,250c-4.31,12.13-15.61,20.9-22.13,31.34-6.76,10.82-13.36,21.27-22.08,30.09-8.91,9-23.28,9.47-33.8,16.18s-19.87,11.87-31.69,16.07S220.53,355.3,208,356.69c-12.37,1.38-24.86,7.7-37.49,6.14-12.23-1.52-23.63-8.39-35.7-12.85s-27-4.25-37.38-11.13c-10.67-7.08-17.9-19.34-26.52-28.5S49.41,293.73,43,282.81s1.54-28.26-2.34-40.36-11.36-22.32-12.53-35c-1.15-12.47,1.73-24.32,3.35-37C33.06,158,28,144,32.31,131.79s13.92-21.68,20.44-32.12c6.76-10.83,17.13-17.79,25.84-26.61C87.51,64,89.33,45.68,99.85,39s25.69-7.29,37.51-11.48S161.57,17.41,174.11,16c12.37-1.37,25.08,7,37.71,8.56,12.23,1.51,22.76,6.76,34.82,11.23s20.67,11.87,31,18.76c10.67,7.07,23.89,9.19,32.5,18.35s17,18.57,23.36,29.49,15.33,21.13,19.21,33.23-.86,25.81.32,38.52c1.15,12.47,7.47,25.08,5.85,37.81C357.35,224.3,356.11,237.78,351.76,250Z"/><path class="cls-3" d="M319.26,259c-4,7.47-11.5,12.61-16.51,19.07-5.15,6.65-10.17,13.14-16.26,18.65s-15.36,6.47-22.35,10.86a133.14,133.14,0,0,1-21.21,11.2c-7.7,3.13-14.22,8.11-22.34,9.87s-15.84,6.32-24.17,6.63-16.5-2.33-24.78-3.48-17.32.8-25.32-1.8c-7.77-2.53-14.69-8.28-22.16-12.25s-16.54-5.95-23-11C94.54,301.55,94,290,88.44,283.92s-12.66-10.72-17-17.74-6.66-14.87-9.76-22.56S51.77,229.36,50,221.23s-.3-16.77-.6-25.11,2.22-16.15,3.37-24.44-4.14-18.06-1.54-26.06c2.52-7.78,9.11-14.55,13.07-22S71.61,108,76.62,101.52C81.77,94.88,90.89,91.9,97,86.39s13.35-9.17,20.34-13.56,14.5-6.56,22.17-9.68,14-9.15,22.13-10.9,16.15-3.37,24.48-3.69,16.79-2.13,25.07-1,15.28,7,23.27,9.59c7.78,2.53,16.77,2.37,24.24,6.34s10.65,13.74,17.1,18.77c6.63,5.17,19.46,3.57,25,9.69s5.12,17.28,9.49,24.3S321.8,129,324.9,136.67s6.37,15.78,8.1,23.92,6,16.66,6.28,25-1.52,17.35-2.68,25.64-2.52,17.18-5.12,25.18C329,244.19,323.22,251.47,319.26,259Z"/><text class="cls-4" transform="translate(187.2 301.96) rotate(-175.95) scale(0.98 1)">/</text><text class="cls-4" transform="translate(180.26 301.47) rotate(-172.17) scale(0.98 1)">/</text><text class="cls-4" transform="translate(173.39 300.53) rotate(-168.4) scale(0.98 1)">I</text><text class="cls-4" transform="matrix(-0.94, -0.26, 0.27, -0.96, 166.57, 299.13)">m</text><text class="cls-4" transform="matrix(-0.92, -0.32, 0.33, -0.94, 159.88, 297.3)">a</text><text class="cls-4" transform="translate(153.33 295.02) rotate(-157.12) scale(0.98 1)">g</text><text class="cls-4" transform="translate(146.92 292.32) rotate(-153.4) scale(0.98 1)">i</text><text class="cls-4" transform="matrix(-0.84, -0.49, 0.5, -0.86, 140.72, 289.22)">n</text><text class="cls-4" transform="translate(134.72 285.72) rotate(-146.06) scale(0.98 1)">e</text><text class="cls-4" transform="matrix(-0.77, -0.59, 0.61, -0.79, 128.94, 281.83)">.</text><text class="cls-4" transform="translate(123.43 277.59) rotate(-138.83) scale(0.98 1)">I</text><text class="cls-4" transform="translate(118.2 273.02) rotate(-135.25) scale(0.98 1)">n</text><text class="cls-4" transform="matrix(-0.65, -0.73, 0.75, -0.67, 113.26, 268.13)">n</text><text class="cls-4" transform="translate(108.64 262.94) rotate(-128.14) scale(0.98 1)">o</text><text class="cls-4" transform="matrix(-0.55, -0.8, 0.82, -0.57, 104.34, 257.47)">v</text><text class="cls-4" transform="translate(100.39 251.75) rotate(-121.06) scale(0.98 1)">a</text><text class="cls-4" transform="translate(96.8 245.8) rotate(-117.52) scale(0.98 1)">t</text><text class="cls-4" transform="matrix(-0.4, -0.89, 0.91, -0.41, 93.58, 239.63)">e</text><text class="cls-4" transform="translate(90.76 233.29) rotate(-110.44) scale(0.98 1)">.</text><text class="cls-4" transform="translate(88.33 226.79) rotate(-106.91) scale(0.98 1)">I</text><text class="cls-4" transform="translate(86.31 220.12) rotate(-103.35) scale(0.98 1)">n</text><text class="cls-4" transform="translate(84.7 213.36) rotate(-99.82) scale(0.98 1)">s</text><text class="cls-4" transform="translate(83.51 206.52) rotate(-96.3) scale(0.98 1)">p</text><text class="cls-4" transform="translate(82.75 199.6) rotate(-92.8) scale(0.98 1)">i</text><text class="cls-4" transform="translate(82.4 192.66) rotate(-89.2) scale(0.98 1)">r</text><text class="cls-4" transform="matrix(0.07, -0.97, 1, 0.07, 82.48, 185.71)">e</text><text class="cls-4" transform="translate(82.98 178.78) rotate(-82.34) scale(0.98 1)">.</text><text class="cls-4" transform="translate(83.91 171.88) rotate(-78.81) scale(0.98 1)">/</text><text class="cls-4" transform="translate(85.26 165.05) rotate(-75.27) scale(0.98 1)">/</text><text class="cls-4" transform="translate(87.02 158.33) rotate(-71.72) scale(0.98 1)">I</text><text class="cls-4" transform="translate(89.21 151.71) rotate(-68.18) scale(0.98 1)">m</text><text class="cls-4" transform="translate(91.78 145.29) rotate(-64.65) scale(0.98 1)">a</text><text class="cls-4" transform="matrix(0.47, -0.85, 0.88, 0.48, 94.76, 138.99)">g</text><text class="cls-4" transform="translate(98.11 132.91) rotate(-57.57) scale(0.98 1)">i</text><text class="cls-4" transform="matrix(0.57, -0.79, 0.81, 0.59, 101.84, 127.04)">n</text><text class="cls-4" transform="matrix(0.62, -0.75, 0.77, 0.64, 105.92, 121.41)">e</text><text class="cls-4" transform="matrix(0.67, -0.71, 0.73, 0.68, 110.34, 116.05)">.</text><text class="cls-4" transform="matrix(0.71, -0.67, 0.69, 0.73, 115.08, 110.97)">I</text><text class="cls-4" transform="matrix(0.75, -0.62, 0.64, 0.77, 120.14, 106.19)">n</text><text class="cls-4" transform="translate(125.49 101.74) rotate(-36.16) scale(0.98 1)">n</text><text class="cls-4" transform="matrix(0.82, -0.52, 0.54, 0.84, 131.09, 97.64)">o</text><text class="cls-4" transform="translate(136.94 93.9) rotate(-28.86) scale(0.98 1)">v</text><text class="cls-4" transform="translate(143.04 90.54) rotate(-25.15) scale(0.98 1)">a</text><text class="cls-4" transform="matrix(0.91, -0.36, 0.37, 0.93, 149.32, 87.59)">t</text><text class="cls-4" transform="translate(155.78 85.05) rotate(-17.68) scale(0.98 1)">e</text><text class="cls-4" transform="translate(162.38 82.94) rotate(-13.92) scale(0.98 1)">.</text><text class="cls-4" transform="translate(169.13 81.27) rotate(-10.13) scale(0.98 1)">I</text><text class="cls-4" transform="translate(175.96 80.04) rotate(-6.36) scale(0.98 1)">n</text><text class="cls-4" transform="matrix(0.97, -0.04, 0.05, 1, 182.87, 79.27)">s</text><text class="cls-4" transform="matrix(0.98, 0.02, -0.02, 1, 189.81, 78.94)">p</text><text class="cls-4" transform="translate(196.74 79.08) rotate(4.87) scale(0.98 1)">i</text><text class="cls-4" transform="translate(203.67 79.67) rotate(8.64) scale(0.98 1)">r</text><text class="cls-4" transform="translate(210.53 80.71) rotate(12.42) scale(0.98 1)">e</text><text class="cls-4" transform="translate(217.32 82.2) rotate(16.19) scale(0.98 1)">.</text><text class="cls-4" transform="translate(223.99 84.14) rotate(19.95) scale(0.98 1)">/</text><text class="cls-4" transform="translate(230.51 86.5) rotate(23.68) scale(0.98 1)">/</text><text class="cls-4" transform="translate(236.87 89.29) rotate(27.4) scale(0.98 1)">I</text><text class="cls-4" transform="matrix(0.84, 0.5, -0.52, 0.86, 243.05, 92.49)">m</text><text class="cls-4" transform="translate(249.01 96.08) rotate(34.74) scale(0.98 1)">a</text><text class="cls-4" transform="translate(254.71 100.03) rotate(38.35) scale(0.98 1)">g</text><text class="cls-4" transform="matrix(0.73, 0.65, -0.67, 0.74, 260.16, 104.34)">i</text><text class="cls-4" transform="matrix(0.68, 0.7, -0.71, 0.7, 265.32, 108.98)">n</text><text class="cls-4" transform="translate(270.2 113.94) rotate(49.07) scale(0.98 1)">e</text><text class="cls-4" transform="translate(274.77 119.2) rotate(52.63) scale(0.98 1)">.</text><text class="cls-4" transform="matrix(0.54, 0.81, -0.83, 0.56, 278.98, 124.72)">I</text><text class="cls-4" transform="translate(282.85 130.48) rotate(59.69) scale(0.98 1)">n</text><text class="cls-4" transform="matrix(0.44, 0.87, -0.89, 0.45, 286.36, 136.48)">n</text><text class="cls-4" transform="matrix(0.38, 0.9, -0.92, 0.39, 289.49, 142.69)">o</text><text class="cls-4" transform="translate(292.24 149.09) rotate(70.33) scale(0.98 1)">v</text><text class="cls-4" transform="translate(294.58 155.63) rotate(73.87) scale(0.98 1)">a</text><text class="cls-4" transform="matrix(0.21, 0.95, -0.98, 0.22, 296.51, 162.3)">t</text><text class="cls-4" transform="translate(298.03 169.09) rotate(80.94) scale(0.98 1)">e</text><text class="cls-4" transform="translate(299.13 175.96) rotate(84.46) scale(0.98 1)">.</text><text class="cls-4" transform="translate(299.8 182.86) rotate(87.95) scale(0.98 1)">I</text><text class="cls-4" transform="translate(300.06 189.82) rotate(91.52) scale(0.98 1)">n</text><text class="cls-4" transform="translate(299.88 196.77) rotate(94.9) scale(0.98 1)">s</text><text class="cls-4" transform="translate(299.29 203.72) rotate(98.43) scale(0.98 1)">p</text><text class="cls-4" transform="matrix(-0.2, 0.95, -0.98, -0.21, 298.27, 210.59)">i</text><text class="cls-4" transform="translate(296.83 217.39) rotate(105.5) scale(0.98 1)">r</text><text class="cls-4" transform="matrix(-0.32, 0.92, -0.95, -0.33, 294.98, 224.08)">e</text><text class="cls-4" transform="matrix(-0.37, 0.9, -0.92, -0.38, 292.72, 230.65)">.</text><text class="cls-4" transform="matrix(-0.43, 0.88, -0.9, -0.44, 290.05, 237.08)">/</text><text class="cls-4" transform="translate(286.98 243.33) rotate(119.67) scale(0.98 1)">/</text><text class="cls-4" transform="matrix(-0.53, 0.82, -0.84, -0.55, 283.55, 249.35)">I</text><text class="cls-4" transform="matrix(-0.58, 0.78, -0.8, -0.6, 279.75, 255.17)">m</text><text class="cls-4" transform="matrix(-0.63, 0.74, -0.76, -0.65, 275.58, 260.76)">a</text><text class="cls-4" transform="matrix(-0.68, 0.7, -0.72, -0.69, 271.1, 266.06)">g</text><text class="cls-4" transform="translate(266.29 271.07) rotate(137.41) scale(0.98 1)">i</text><text class="cls-4" transform="translate(261.17 275.78) rotate(141.01) scale(0.98 1)">n</text><text class="cls-4" transform="matrix(-0.8, 0.56, -0.58, -0.82, 255.77, 280.15)">e</text><text class="cls-4" transform="matrix(-0.83, 0.51, -0.53, -0.85, 250.12, 284.17)">.</text><text class="cls-4" transform="translate(244.21 287.83) rotate(151.93) scale(0.98 1)">I</text><text class="cls-4" transform="matrix(-0.89, 0.4, -0.41, -0.91, 238.06, 291.11)">n</text><text class="cls-4" transform="translate(231.73 293.98) rotate(159.38) scale(0.98 1)">n</text><text class="cls-4" transform="translate(225.24 296.42) rotate(163.13) scale(0.98 1)">o</text><text class="cls-4" transform="translate(218.6 298.44) rotate(166.91) scale(0.98 1)">v</text><text class="cls-4" transform="translate(211.83 300.02) rotate(170.69) scale(0.98 1)">a</text><text class="cls-4" transform="translate(204.99 301.14) rotate(174.45) scale(0.98 1)">t</text><polygon class="cls-5" points="191.37 98.61 205.48 190.45 177.25 190.45 191.37 98.61"/><polygon class="cls-6" points="191.12 283.16 177 191.33 205.23 191.33 191.12 283.16"/><path class="cls-7" d="M347.92,191.54c0,8.28-4.51,16.21-5.71,24.14-1.24,8.16-2.26,16.15-4.67,23.84-2.46,7.84-10.26,13-13.84,20.22A146.67,146.67,0,0,1,312,280.14c-4.7,6.69-7.1,14.5-12.75,20.34s-9.13,14.17-15.63,19.07-14.75,7.21-22,11-13.14,11.06-20.91,13.67-16.56,1.83-24.68,3.16c-7.93,1.29-16.14,5.58-24.42,5.58S176,343.54,168,342.25c-8.12-1.32-16.33,0-24-2.59s-14.27-7.23-21.43-11-16.73-3.9-23.22-8.8-10.87-12.42-16.53-18.28S74,288.19,69.33,281.5s-15.87-9.63-19.5-17S46.56,247.85,44.1,240c-2.41-7.68-6.09-15.53-7.33-23.68-1.2-7.93,3.28-16.51,3.28-24.79s2.22-15.84,3.42-23.77c1.24-8.15,4.54-15,7-22.72,2.45-7.84,1.33-16.53,4.91-23.78s7.16-14.59,11.82-21.22,8.08-14.63,13.73-20.47,14.74-7.84,21.25-12.74,11.15-12.61,18.37-16.43,17.15-.34,24.92-2.95,12.89-15.15,21-16.48c7.92-1.29,16.9,5.74,25.17,5.74s16.69-3.54,24.61-2.25c8.13,1.32,16.59,2.56,24.24,5.13s17.28,2.91,24.44,6.7,14,9.92,20.51,14.82,13.68,10.27,19.35,16.14A168,168,0,0,1,321,96.62c4.66,6.63,5.55,16.2,9.17,23.55a159.71,159.71,0,0,1,9.57,22.72c2.41,7.68,1.86,16.26,3.1,24.42C344,175.24,347.92,183.26,347.92,191.54Z"/></g></g></svg>