<svg width="41" height="44" viewBox="0 0 41 44" fill="none" xmlns="http://www.w3.org/2000/svg">
<path fill-rule="evenodd" clip-rule="evenodd" d="M26.8277 4.4H36.0237C38.4437 4.4 40.4237 6.38 40.4237 8.8V39.6C40.4237 42.02 38.4437 44 36.0237 44H5.22373C4.91573 44 4.62973 43.978 4.34373 43.934C3.48573 43.758 2.71573 43.318 2.12173 42.724C1.72573 42.306 1.39573 41.844 1.17573 41.316C0.95573 40.788 0.82373 40.194 0.82373 39.6V8.8C0.82373 8.184 0.95573 7.612 1.17573 7.106C1.39573 6.578 1.72573 6.094 2.12173 5.698C2.71573 5.104 3.48573 4.664 4.34373 4.488C4.62973 4.422 4.91573 4.4 5.22373 4.4H14.4197C15.3437 1.848 17.7637 0 20.6237 0C23.4837 0 25.9037 1.848 26.8277 4.4ZM9.62388 13.2H31.6239V17.6H9.62388V13.2ZM31.6239 22H9.62388V26.4H31.6239V22ZM25.0239 30.8H9.62388V35.2H25.0239V30.8ZM20.6237 3.85C21.5257 3.85 22.2737 4.598 22.2737 5.5C22.2737 6.402 21.5257 7.15 20.6237 7.15C19.7217 7.15 18.9737 6.402 18.9737 5.5C18.9737 4.598 19.7217 3.85 20.6237 3.85ZM5.22358 39.6H36.0236V8.8H5.22358V39.6Z" fill="black"/>
</svg>
