<svg width="363" height="363" viewBox="0 0 363 363" fill="none" xmlns="http://www.w3.org/2000/svg">
<circle cx="181.5" cy="181.5" r="181.5" fill="#F4F4FF"/>
<path d="M303.294 140.01H235.689V237.584H268.306V201.621H301.9C319.324 201.621 335.075 188.1 335.075 170.955C335.075 151.44 323.087 140.01 303.294 140.01ZM297.16 175.833H268.306V165.797H297.16C300.227 165.797 302.457 167.331 302.457 170.676C302.457 173.743 300.227 175.833 297.16 175.833Z" fill="#0038FF"/>
<path d="M154.295 237.584H184.125L199.737 211.797H200.295L216.185 237.584H246.015L268.876 140.01H233.888L222.179 193.815H221.064L200.852 165.797H199.458L179.247 193.815H178.131L166.422 140.01H131.435L154.295 237.584Z" fill="#0061FF"/>
<path d="M49.7513 237.584H79.5812L95.1931 211.797H95.7506L111.641 237.584H141.471L164.331 140.01H129.344L117.635 193.815H116.52L96.3082 165.797H94.9143L74.7024 193.815H73.5873L61.8784 140.01H26.891L49.7513 237.584Z" fill="#2F7EFF"/>
</svg>
