<svg width="313" height="140" viewBox="0 0 313 140" fill="none" xmlns="http://www.w3.org/2000/svg">
<path d="M277.294 7.00971H209.689V104.584H242.306V68.621H275.9C293.324 68.621 309.075 55.0999 309.075 37.9547C309.075 18.4399 297.087 7.00971 277.294 7.00971ZM271.16 42.8335H242.306V32.7972H271.16C274.227 32.7972 276.457 34.3305 276.457 37.676C276.457 40.7426 274.227 42.8335 271.16 42.8335Z" fill="#0038FF"/>
<path d="M128.295 104.584H158.125L173.737 78.7966H174.295L190.185 104.584H220.015L242.876 7.00971H207.888L196.179 60.815H195.064L174.852 32.7972H173.458L153.247 60.815H152.131L140.422 7.00971H105.435L128.295 104.584Z" fill="#0061FF"/>
<path d="M23.7513 104.584H53.5812L69.1931 78.7966H69.7506L85.6413 104.584H115.471L138.331 7.00971H103.344L91.6352 60.815H90.52L70.3082 32.7972H68.9143L48.7024 60.815H47.5873L35.8784 7.00971H0.890992L23.7513 104.584Z" fill="#2F7EFF"/>
</svg>
